<?xml version="1.0" standalone="no"?>
<!DOCTYPE svg PUBLIC "-//W3C//DTD SVG 20010904//EN"
 "http://www.w3.org/TR/2001/REC-SVG-20010904/DTD/svg10.dtd">
<svg version="1.0" xmlns="http://www.w3.org/2000/svg"
 width="512.000000pt" height="512.000000pt" viewBox="0 0 512.000000 512.000000"
 preserveAspectRatio="xMidYMid meet">
<metadata>
Created by potrace 1.11, written by Peter Selinger 2001-2013
</metadata>
<g transform="translate(0.000000,512.000000) scale(0.100000,-0.100000)"
fill="#000000" stroke="none">
<path d="M2375 5054 c-16 -2 -73 -9 -125 -15 -548 -62 -1101 -339 -1489 -744
-332 -348 -561 -783 -649 -1235 -41 -206 -46 -265 -47 -490 0 -237 9 -330 52
-535 184 -882 850 -1604 1726 -1869 111 -34 246 -63 402 -88 108 -17 503 -17
625 0 407 57 749 186 1080 407 545 363 935 943 1058 1575 41 206 46 265 47
490 0 237 -9 330 -52 535 -98 473 -357 938 -708 1274 -388 371 -835 589 -1389
678 -87 13 -467 26 -531 17z m380 -695 c900 -105 1574 -827 1612 -1729 34
-826 -499 -1569 -1297 -1806 -510 -151 -1083 -63 -1519 234 -486 331 -773 847
-798 1432 -26 638 287 1241 828 1592 231 150 546 259 814 281 94 8 277 6 360
-4z"/>
<path d="M1652 2544 l3 -969 480 0 c353 0 503 4 565 14 480 76 774 345 850
777 19 104 8 347 -19 449 -96 360 -357 586 -776 672 -53 11 -195 16 -588 20
l-517 5 2 -968z m700 642 c4 -6 8 -23 8 -37 0 -28 30 -73 60 -89 14 -7 33 -5
70 10 28 11 55 20 60 20 6 0 10 -41 10 -94 l0 -95 171 -88 c176 -90 189 -101
189 -159 0 -20 -5 -24 -32 -24 -21 0 -28 -3 -20 -8 6 -5 12 -19 11 -33 -2 -48
14 -128 25 -126 6 1 12 -9 14 -23 2 -23 1 -24 -11 -7 -19 24 -27 21 -27 -8 0
-18 -5 -25 -20 -25 -11 0 -20 -4 -20 -10 0 -5 5 -10 10 -10 6 0 10 -6 10 -14
0 -7 7 -19 15 -26 9 -8 12 -22 8 -41 -6 -33 3 -38 23 -11 11 14 13 0 14 -99
l0 -116 -250 5 -250 5 -2 -189 -3 -189 -28 54 c-23 43 -27 60 -21 90 3 20 8
63 10 96 1 33 7 71 12 85 6 17 6 59 0 120 -9 86 -14 98 -41 128 -28 29 -31 38
-29 87 2 38 -2 56 -10 57 -21 3 -51 5 -82 7 l-29 1 6 80 c3 44 1 83 -4 86 -5
3 -9 32 -9 66 0 55 2 60 19 55 14 -3 18 -1 14 9 -3 8 -9 12 -13 9 -4 -3 -10 1
-13 9 -4 11 -11 426 -8 459 1 13 155 -4 163 -17z"/>
</g>
</svg>
